HIERARCHY
ROOT Hips
{
 OFFSET 0.000000 0.000000 0.000000
 CHANNELS 6 Xposition Yposition Zposition Yrotation Xrotation Zrotation
 JOINT Chest
 {
  OFFSET 0.000000 9.581000 -0.001100
  CHANNELS 3 Yrotation Xrotation Zrotation
  JOINT Chest2
  {
   OFFSET 0.000000 9.561100 0.002200
   CHANNELS 3 Yrotation Xrotation Zrotation
   JOINT Chest3
   {
    OFFSET 0.000000 9.521100 0.000000
    CHANNELS 3 Yrotation Xrotation Zrotation
    JOINT Chest4
    {
     OFFSET 0.000000 9.511400 0.000000
     CHANNELS 3 Yrotation Xrotation Zrotation
     JOINT Neck
     {
      OFFSET 0.000000 14.375100 0.000000
      CHANNELS 3 Yrotation Xrotation Zrotation
      JOINT Head
      {
       OFFSET 0.000000 8.901200 0.004600
       CHANNELS 3 Yrotation Xrotation Zrotation
       End Site
       {
        OFFSET 0.000000 16.962200 0.002400
       }
      }
     }
     JOINT RightCollar
     {
      OFFSET -2.920100 9.518800 0.000000
      CHANNELS 3 Yrotation Xrotation Zrotation
      JOINT RightShoulder
      {
       OFFSET -13.664500 0.000000 0.000000
       CHANNELS 3 Yrotation Xrotation Zrotation
       JOINT RightElbow
       {
        OFFSET 0.000000 -29.999200 0.000000
        CHANNELS 3 Yrotation Xrotation Zrotation
        JOINT RightWrist
        {
         OFFSET 0.000000 -24.253600 0.000000
         CHANNELS 3 Yrotation Xrotation Zrotation
         End Site
         {
          OFFSET 0.000000 -17.918900 0.000000
         }
        }
       }
      }
     }
     JOINT LeftCollar
     {
      OFFSET 2.920100 9.518800 0.000000
      CHANNELS 3 Yrotation Xrotation Zrotation
      JOINT LeftShoulder
      {
       OFFSET 13.664500 0.000000 0.000000
       CHANNELS 3 Yrotation Xrotation Zrotation
       JOINT LeftElbow
       {
        OFFSET 0.000000 -29.999200 0.000000
        CHANNELS 3 Yrotation Xrotation Zrotation
        JOINT LeftWrist
        {
         OFFSET 0.000000 -24.253600 0.000000
         CHANNELS 3 Yrotation Xrotation Zrotation
         End Site
         {
          OFFSET 0.000000 -17.918900 0.000000
         }
        }
       }
      }
     }
    }
   }
  }
 }
 JOINT RightHip
 {
  OFFSET -7.797300 0.005300 0.000500
  CHANNELS 3 Yrotation Xrotation Zrotation
  JOINT RightKnee
  {
   OFFSET 0.000000 -40.663400 -0.000500
   CHANNELS 3 Yrotation Xrotation Zrotation
   JOINT RightAnkle
   {
    OFFSET 0.000000 -39.523700 -0.000900
    CHANNELS 3 Yrotation Xrotation Zrotation
    JOINT RightToe
    {
     OFFSET 0.000000 -6.418000 14.485300
     CHANNELS 3 Yrotation Xrotation Zrotation
     End Site
     {
      OFFSET 0.000000 -1.465200 6.326400
     }
    }
   }
  }
 }
 JOINT LeftHip
 {
  OFFSET 7.797300 0.005300 0.000500
  CHANNELS 3 Yrotation Xrotation Zrotation
  JOINT LeftKnee
  {
   OFFSET 0.000000 -40.663400 -0.000500
   CHANNELS 3 Yrotation Xrotation Zrotation
   JOINT LeftAnkle
   {
    OFFSET 0.000000 -39.523700 -0.000900
    CHANNELS 3 Yrotation Xrotation Zrotation
    JOINT LeftToe
    {
     OFFSET 0.000000 -6.418000 14.485300
     CHANNELS 3 Yrotation Xrotation Zrotation
     End Site
     {
      OFFSET 0.000000 -1.465200 6.326400
     }
    }
   }
  }
 }
}
MOTION
Frames: 16
Frame Time: 0.008333
0.000000 86.422400 0.000000 0.000000 -5.767877 0.000000 0.000000 11.653817 0.000000 0.000000 -5.885947 0.000000 0.000000 -0.000000 0.000000 0.000000 -0.000000 0.000000 0.000000 12.528835 0.000000 0.000000 0.711642 0.000000 0.000000 -0.000000 0.000000 0.000000 0.000000 -90.000000 0.000000 -2.309062 0.000000 0.000000 2.309062 0.000000 0.000000 -0.000000 0.000000 0.000000 -0.000000 90.000000 0.000000 -2.309062 0.000000 0.000000 2.309062 0.000000 0.000000 8.520406 0.000000 0.000000 1.905762 0.000000 -0.000000 -4.658285 0.000000 0.000000 -0.000000 0.000000 0.000000 8.520406 0.000000 0.000000 1.905762 0.000000 -0.000000 -4.658285 0.000000 0.000000 -0.000000 0.000000
-15.405662 126.896824 10.465500 176.092725 -47.056394 -4.486930 7.375069 25.661313 5.089524 1.064887 4.419406 0.611698 1.715686 6.997251 1.012136 5.764863 21.031315 3.843083 -0.639076 10.720262 1.873552 -1.101279 -14.372630 2.125194 2.410994 3.146939 1.513848 -2.278670 -9.784831 -8.109962 -125.358620 -69.772682 167.243015 7.025148 -0.247193 -17.317835 -9.281752 -0.043887 -0.549934 2.460146 -12.089558 9.111590 71.996937 -66.878141 -109.618591 -5.589371 -8.212042 6.585286 3.876288 -26.817609 9.834264 -15.171257 73.946312 -19.334309 12.647890 -7.559886 9.986299 0.002672 -0.004405 0.001184 11.478050 -7.987415 11.907515 145.420495 69.705738 162.850694 -5.530443 -15.693535 -9.065315 -0.000352 0.009350 -0.000156
-15.406141 126.895431 10.469382 176.097123 -47.063142 -4.482153 7.369442 25.665242 5.082770 1.064688 4.416828 0.612627 1.714336 6.999324 1.012129 5.760048 21.034736 3.842291 -0.727997 10.902993 1.803682 -1.171965 -14.186303 2.066759 2.421784 3.136026 1.516187 -2.213646 -9.938501 -8.217839 -125.068844 -69.781193 166.946791 6.977316 -0.025305 -16.715242 -9.336958 -0.110994 -0.574197 2.379395 -12.099056 9.297968 72.294618 -66.700641 -110.136110 -5.676337 -7.965394 6.128073 3.887031 -26.810773 9.824689 -15.168954 73.940884 -19.327246 12.605957 -7.553343 9.989618 -0.009097 -0.001067 -0.004031 11.486792 -7.990465 11.904024 145.416331 69.709218 162.849992 -5.517385 -15.682633 -9.074316 -0.001790 0.009773 -0.000793
-15.406251 126.895848 10.472042 176.105321 -47.087453 -4.480489 7.360005 25.678523 5.076294 1.072055 4.410841 0.616239 1.704367 7.013287 1.009705 5.753863 21.041950 3.840780 -0.817696 11.084045 1.727696 -1.251004 -14.004140 2.007654 2.475044 3.046019 1.543859 -2.176189 -10.010803 -8.359942 -124.610636 -69.795586 166.526580 6.947531 0.167456 -16.022853 -9.368422 -0.171253 -0.592098 2.268566 -12.113384 9.479853 72.565497 -66.524085 -110.659281 -5.769380 -7.720704 5.635166 3.892467 -26.786718 9.810327 -15.131415 73.934503 -19.295965 12.674974 -7.557285 9.988895 -0.001400 -0.000756 -0.000620 11.493111 -7.978443 11.909943 145.389805 69.720999 162.818810 -5.515327 -15.655645 -9.073027 -0.007536 0.007853 -0.003339
-15.406941 126.895889 10.475285 176.137945 -47.109560 -4.492536 7.355442 25.678185 5.081074 1.055498 4.431009 0.611912 1.705081 7.011112 1.012156 5.739650 21.051110 3.835737 -0.915920 11.264921 1.647304 -1.343360 -13.830935 1.949283 2.515421 2.981208 1.562927 -2.116392 -10.099432 -8.497298 -123.992710 -69.806782 165.981424 6.942006 0.339412 -15.256604 -9.388817 -0.218335 -0.601588 2.130579 -12.135377 9.656373 72.821856 -66.352247 -111.190753 -5.865062 -7.482611 5.111445 3.885293 -26.762946 9.802744 -15.140185 73.925276 -19.306116 12.682436 -7.553913 9.992643 0.000006 -0.001355 0.000003 11.491811 -7.976099 11.920658 145.403145 69.726409 162.845188 -5.519665 -15.636656 -9.079418 -0.002605 0.005261 -0.001154
-15.408716 126.898744 10.475898 176.173113 -47.156348 -4.498420 7.334964 25.723852 5.069355 1.053439 4.433706 0.610930 1.709041 7.018485 1.011500 5.747322 21.085138 3.828783 -1.039633 11.407014 1.574943 -1.451491 -13.665166 1.891794 2.527787 2.891185 1.588503 -2.032022 -10.192549 -8.634762 -123.247976 -69.809817 165.334671 6.964191 0.513517 -14.430769 -9.409086 -0.271201 -0.583832 1.952706 -12.182087 9.826741 73.068516 -66.192135 -111.723086 -5.950933 -7.252374 4.561928 3.877911 -26.710852 9.786781 -15.142467 73.916149 -19.309374 12.694433 -7.552756 9.993406 0.002346 -0.002295 0.001039 11.475068 -7.929686 11.916237 145.377480 69.735048 162.812116 -5.514207 -15.620651 -9.090350 -0.007441 0.007506 -0.003297
-15.408059 126.896998 10.481312 176.183955 -47.166302 -4.502909 7.335922 25.729874 5.072326 1.072797 4.434471 0.609693 1.697250 7.029235 1.014371 5.743429 21.093514 3.824776 -1.171086 11.571305 1.488127 -1.574621 -13.503438 1.834838 2.543207 2.824582 1.606810 -1.932734 -10.274523 -8.775272 -122.440408 -69.804824 164.642814 7.006883 0.715057 -13.551355 -9.450352 -0.348684 -0.583728 1.768598 -12.180041 10.012215 73.298765 -66.040099 -112.244346 -6.020241 -7.022854 3.992545 3.868786 -26.702292 9.788141 -15.142312 73.912954 -19.314313 12.711063 -7.554375 9.992989 0.005978 0.000820 0.002649 11.477815 -7.933066 11.929477 145.395067 69.739850 162.837765 -5.518739 -15.612453 -9.097540 -0.007132 0.009896 -0.003161
-15.407090 126.897401 10.484712 176.201462 -47.193819 -4.513570 7.341628 25.748317 5.076942 1.062840 4.442667 0.612449 1.735222 7.047088 1.005865 5.711878 21.079426 3.837005 -1.303735 11.743512 1.386746 -1.710084 -13.344724 1.776380 2.566359 2.766144 1.619953 -1.824993 -10.339177 -8.920526 -121.633503 -69.791410 163.966457 7.067953 0.966287 -12.623054 -9.479869 -0.420321 -0.590114 1.555097 -12.170834 10.203693 73.501821 -65.886004 -112.748859 -6.083230 -6.784858 3.411798 3.852684 -26.673713 9.792189 -15.136171 73.904207 -19.314815 12.732967 -7.550314 9.993204 0.008841 0.002019 0.003917 11.475376 -7.919180 11.951270 145.418909 69.747001 162.870427 -5.541581 -15.604181 -9.082862 -0.006751 0.009608 -0.002991
-15.407349 126.900639 10.485173 176.223622 -47.244390 -4.519534 7.369980 25.776543 5.083474 1.045997 4.462549 0.615450 1.741933 7.051790 1.008531 5.715220 21.098665 3.835889 -1.458497 11.888120 1.292090 -1.857565 -13.187853 1.713220 2.574054 2.681458 1.646969 -1.716312 -10.386153 -9.073273 -120.866367 -69.764929 163.341591 7.150256 1.285702 -11.652055 -9.524929 -0.569409 -0.575427 1.320978 -12.099939 10.396276 73.659261 -65.723705 -113.222593 -6.153717 -6.528924 2.830863 3.827224 -26.626276 9.789558 -15.103384 73.910242 -19.295087 12.739022 -7.546338 9.993595 0.008994 -0.004975 0.003985 11.475680 -7.888879 11.986846 145.409614 69.763745 162.869937 -5.595393 -15.574822 -9.057811 0.000450 0.001944 0.000199
-15.407749 126.901130 10.488010 176.235888 -47.272461 -4.518705 7.372858 25.798501 5.081367 1.085086 4.454874 0.614695 1.716865 7.065462 1.013460 5.773229 21.120944 3.833257 -1.662756 12.023579 1.208042 -2.016710 -13.033835 1.643670 2.538091 2.588356 1.691072 -1.606354 -10.416392 -9.231168 -120.186104 -69.727289 162.807068 7.253492 1.676009 -10.632379 -9.598629 -0.685570 -0.533246 1.056286 -12.064924 10.574858 73.743459 -65.553998 -113.638164 -6.244327 -6.248282 2.264441 3.812177 -26.600221 9.784087 -15.101243 73.910474 -19.301693 12.760836 -7.545407 9.991470 0.013065 -0.004861 0.005788 11.473646 -7.869509 11.999836 145.411715 69.773339 162.873384 -5.622701 -15.563099 -9.044437 -0.003126 0.002367 -0.001385
-15.408872 126.901357 10.490779 176.238193 -47.298180 -4.506506 7.383629 25.816987 5.077330 1.085322 4.458374 0.615263 1.711305 7.068868 1.013616 5.811824 21.129419 3.837491 -1.845122 12.170150 1.096344 -2.182235 -12.883566 1.567967 2.532637 2.506076 1.712727 -1.488748 -10.424276 -9.386003 -119.642781 -69.685593 162.407932 7.387645 2.122309 -9.563396 -9.635921 -0.771701 -0.510273 0.778001 -12.055449 10.743370 73.757009 -65.379092 -113.994183 -6.361678 -5.932275 1.716162 3.802697 -26.575892 9.779394 -15.135514 73.909367 -19.337999 12.711657 -7.539000 9.991622 0.005386 -0.003792 0.002386 11.476037 -7.846582 12.000326 145.394413 69.781433 162.851594 -5.627655 -15.549655 -9.061397 -0.011368 0.005270 -0.005037
-15.407903 126.901156 10.494112 176.234185 -47.318447 -4.502633 7.412869 25.822803 5.091632 1.075859 4.467434 0.615055 1.731192 7.074465 1.015983 5.821431 21.129864 3.843260 -2.028800 12.315254 0.978516 -2.348107 -12.734549 1.486303 2.529752 2.422000 1.729983 -1.357822 -10.408745 -9.535505 -119.247272 -69.644001 162.154210 7.562273 2.604723 -8.456943 -9.664665 -0.853568 -0.487344 0.487852 -12.052287 10.905075 73.727284 -65.203601 -114.313562 -6.500624 -5.573514 1.184694 3.789152 -26.557704 9.783641 -15.132367 73.905405 -19.346373 12.715655 -7.537255 10.001375 0.003267 -0.003983 0.001447 11.486050 -7.839330 12.023283 145.425122 69.788711 162.888170 -5.626319 -15.537572 -9.085241 -0.010654 0.005214 -0.004721
-15.407343 126.900985 10.497150 176.232777 -47.337386 -4.498322 7.436704 25.821872 5.102195 1.089276 4.466162 0.620471 1.722128 7.092622 1.013163 5.831904 21.126228 3.853433 -2.212410 12.461330 0.853926 -2.512741 -12.584247 1.397679 2.527035 2.343105 1.742016 -1.208052 -10.377937 -9.684560 -118.969215 -69.606958 162.017514 7.776683 3.098906 -7.323351 -9.691725 -0.889469 -0.476031 0.193753 -12.089670 11.066923 73.664284 -65.037112 -114.606482 -6.649895 -5.184146 0.673255 3.775611 -26.542185 9.782337 -15.178271 73.904903 -19.395225 12.734923 -7.536969 9.997404 0.003772 -0.002619 0.001671 11.491397 -7.834215 12.042655 145.454961 69.792965 162.921860 -5.637704 -15.526932 -9.084375 -0.010463 0.003183 -0.004636
-15.407776 126.900168 10.500423 176.231566 -47.349733 -4.488633 7.441537 25.827685 5.099195 1.097196 4.458112 0.628206 1.746158 7.087036 1.021607 5.820747 21.136556 3.856865 -2.396697 12.610523 0.721170 -2.676724 -12.430406 1.300850 2.509517 2.311515 1.743801 -1.031156 -10.380461 -9.831095 -118.763929 -69.574494 161.967339 8.016701 3.580853 -6.201057 -9.713385 -0.919468 -0.472581 -0.108451 -12.124740 11.221336 73.567039 -64.884904 -114.872192 -6.780293 -4.797623 0.223436 3.773202 -26.532555 9.775116 -15.200192 73.907849 -19.415743 12.719948 -7.538144 9.996637 0.001470 0.000584 0.000652 11.495546 -7.833572 12.056297 145.438474 69.804681 162.902833 -5.669687 -15.505675 -9.066881 -0.013679 0.001560 -0.006061
-15.406314 126.899525 10.503669 176.229102 -47.361001 -4.489897 7.465558 25.799640 5.134108 1.086731 4.477306 0.620033 1.748459 7.088839 1.024276 5.827775 21.137028 3.865152 -2.580145 12.765044 0.579476 -2.838200 -12.270717 1.194463 2.506324 2.225892 1.739199 -0.866224 -10.322895 -9.978610 -118.589940 -69.548652 161.979149 8.178102 3.987453 -5.230386 -9.705540 -1.042943 -0.445120 -0.436396 -12.057343 11.334586 73.423284 -64.743787 -115.093786 -6.840793 -4.484757 -0.049371 3.766871 -26.524694 9.782434 -15.220519 73.909560 -19.433069 12.701298 -7.536161 9.996725 -0.001798 0.003105 -0.000797 11.506321 -7.838660 12.092978 145.493983 69.816381 162.968355 -5.676115 -15.495718 -9.081823 -0.004090 0.000400 -0.001812
-15.405959 126.900036 10.505461 176.229506 -47.380305 -4.486896 7.471205 25.798322 5.148207 1.087136 4.477097 0.621820 1.749174 7.088417 1.027088 5.830904 21.135279 3.873906 -2.759940 12.926220 0.429892 -2.994386 -12.103668 1.078822 2.505209 2.150792 1.724942 -0.698887 -10.269794 -10.122145 -118.374676 -69.522100 161.979252 8.126314 4.205544 -4.595903 -9.697234 -1.097252 -0.439672 -0.771342 -12.048686 11.452952 73.216254 -64.610615 -115.231342 -6.819536 -4.340166 -0.047253 3.757842 -26.510015 9.783474 -15.230382 73.916509 -19.444062 12.683427 -7.534054 9.996638 -0.006774 0.002188 -0.003002 11.510193 -7.824695 12.106354 145.517379 69.822274 162.994543 -5.653777 -15.488526 -9.115921 -0.000469 0.001118 -0.000208
